<?xml version="1.0" standalone="no"?>
<!DOCTYPE svg PUBLIC "-//W3C//DTD SVG 20010904//EN"
 "https://www.w3.org/TR/2001/REC-SVG-20010904/DTD/svg10.dtd">
<svg version="1.0" xmlns="https://www.w3.org/2000/svg"
 width="1800.000000pt" height="1800.000000pt" viewBox="0 0 1800.000000 1800.000000"
 preserveAspectRatio="xMidYMid meet">
<metadata>
Created by potrace 1.14, written by Peter Selinger 2001-2017
</metadata>
<g transform="translate(0.000000,1800.000000) scale(0.100000,-0.100000)"
fill="#000000" stroke="none">
<path d="M6310 13613 c-26 -33 -20 -68 17 -101 31 -28 50 -26 76 10 23 30 18
67 -13 98 -27 27 -55 25 -80 -7z"/>
<path d="M5507 13352 c-24 -27 -21 -74 6 -100 26 -24 48 -27 78 -12 24 13 26
75 3 108 -19 27 -64 29 -87 4z"/>
<path d="M9926 12611 c-4 -5 3 -7 14 -4 23 6 26 13 6 13 -8 0 -17 -4 -20 -9z"/>
<path d="M9966 12601 c-6 -10 24 -25 32 -16 3 3 0 5 -7 5 -7 0 -9 5 -6 10 3 6
2 10 -4 10 -5 0 -12 -4 -15 -9z"/>
<path d="M9840 12590 c-18 -12 -2 -12 25 0 13 6 15 9 5 9 -8 0 -22 -4 -30 -9z"/>
<path d="M10010 12590 c0 -5 5 -10 11 -10 5 0 7 5 4 10 -3 6 -8 10 -11 10 -2
0 -4 -4 -4 -10z"/>
<path d="M10060 12581 c14 -11 30 -21 35 -21 11 0 -7 14 -40 31 -13 7 -12 3 5
-10z"/>
<path d="M9796 12565 c-11 -8 -15 -15 -9 -15 7 0 15 5 18 10 4 6 11 7 17 4 7
-4 8 -2 4 4 -9 14 -7 15 -30 -3z"/>
<path d="M9868 12573 c7 -3 16 -2 19 1 4 3 -2 6 -13 5 -11 0 -14 -3 -6 -6z"/>
<path d="M11016 12515 c-9 -14 -15 -25 -13 -25 2 0 13 11 25 25 12 14 18 25
13 25 -5 0 -16 -11 -25 -25z"/>
<path d="M10220 12482 c0 -4 9 -8 20 -9 11 -1 18 2 15 8 -7 11 -35 12 -35 1z"/>
<path d="M10977 12476 c-4 -10 -1 -13 8 -9 8 3 12 9 9 14 -7 12 -11 11 -17 -5z"/>
<path d="M10300 12476 c0 -2 8 -10 18 -17 15 -13 16 -12 3 4 -13 16 -21 21
-21 13z"/>
<path d="M10365 12461 c-7 -12 12 -24 25 -16 11 7 4 25 -10 25 -5 0 -11 -4
-15 -9z"/>
<path d="M10448 12453 c7 -3 16 -2 19 1 4 3 -2 6 -13 5 -11 0 -14 -3 -6 -6z"/>
<path d="M10828 12453 c7 -3 16 -2 19 1 4 3 -2 6 -13 5 -11 0 -14 -3 -6 -6z"/>
<path d="M10900 12449 c-12 -8 -10 -9 8 -4 13 4 22 2 22 -5 0 -6 5 -8 11 -4 8
4 7 9 -2 15 -18 11 -21 11 -39 -2z"/>
<path d="M10251 12405 c5 -25 6 -53 3 -62 -5 -15 -4 -15 4 -4 8 12 14 12 25 3
12 -10 15 -8 15 14 0 16 -3 21 -8 14 -10 -15 -30 18 -30 49 0 11 -4 22 -9 25
-5 3 -5 -14 0 -39z"/>
<path d="M10340 12446 c0 -2 8 -10 18 -17 15 -13 16 -12 3 4 -13 16 -21 21
-21 13z"/>
<path d="M10470 12440 c-9 -6 -10 -10 -3 -10 6 0 15 5 18 10 8 12 4 12 -15 0z"/>
<path d="M10690 12446 c0 -2 9 -6 20 -9 11 -3 18 -1 14 4 -5 9 -34 13 -34 5z"/>
<path d="M10796 12439 c3 -5 -7 -10 -23 -10 -20 -1 -22 -3 -8 -6 12 -2 32 0
45 5 23 9 23 9 2 14 -12 4 -20 2 -16 -3z"/>
<path d="M9480 12419 l-25 -21 27 16 c32 19 42 20 32 4 -4 -7 -3 -8 5 -4 11 7
6 26 -7 26 -4 0 -18 -10 -32 -21z"/>
<path d="M10538 12433 c7 -3 16 -2 19 1 4 3 -2 6 -13 5 -11 0 -14 -3 -6 -6z"/>
<path d="M10623 12433 c9 -2 23 -2 30 0 6 3 -1 5 -18 5 -16 0 -22 -2 -12 -5z"/>
<path d="M10528 12413 c6 -2 18 -2 25 0 6 3 1 5 -13 5 -14 0 -19 -2 -12 -5z"/>
<path d="M10608 12413 c6 -2 18 -2 25 0 6 3 1 5 -13 5 -14 0 -19 -2 -12 -5z"/>
<path d="M10792 12411 c-11 -7 -11 -9 1 -14 9 -3 18 1 21 9 6 16 -2 18 -22 5z"/>
<path d="M10848 12413 c7 -3 16 -2 19 1 4 3 -2 6 -13 5 -11 0 -14 -3 -6 -6z"/>
<path d="M10466 12398 c3 -5 10 -6 15 -3 13 9 11 12 -6 12 -8 0 -12 -4 -9 -9z"/>
<path d="M9421 12391 c-8 -5 -9 -11 -3 -15 5 -3 12 1 16 9 6 17 6 18 -13 6z"/>
<path d="M9400 12359 c0 -5 -4 -7 -10 -4 -10 6 -59 -24 -60 -37 0 -3 18 3 40
13 22 11 40 24 40 29 0 6 -2 10 -5 10 -3 0 -5 -5 -5 -11z"/>
<path d="M10277 12314 c6 -17 5 -18 -12 -4 -12 10 -16 10 -11 2 4 -7 2 -20 -5
-28 -8 -10 -9 -18 -2 -25 8 -8 13 -7 18 2 5 8 4 10 -3 5 -7 -4 -12 -3 -12 2 0
17 13 22 28 9 13 -10 14 -9 8 2 -5 8 -4 16 3 21 9 5 8 10 -4 20 -13 11 -14 10
-8 -6z"/>
<path d="M6116 10938 c-30 -42 -14 -118 24 -118 21 0 50 46 50 77 0 25 -28 63
-45 63 -8 0 -21 -10 -29 -22z"/>
<path d="M6624 10796 c1 -8 5 -18 8 -22 4 -3 5 1 4 10 -1 8 -5 18 -8 22 -4 3
-5 -1 -4 -10z"/>
<path d="M6933 10780 c-46 -19 -59 -95 -21 -130 26 -24 56 -26 86 -4 34 23 31
95 -4 123 -30 23 -30 23 -61 11z"/>
<path d="M9150 10760 c-26 -26 -25 -64 1 -101 22 -31 65 -39 87 -17 13 13 16
86 4 104 -8 13 -46 34 -61 34 -6 0 -20 -9 -31 -20z"/>
<path d="M8170 10703 c-43 -15 -55 -88 -20 -123 56 -56 129 15 96 94 -15 36
-35 44 -76 29z"/>
<path d="M6695 10650 c-3 -6 1 -7 9 -4 18 7 21 14 7 14 -6 0 -13 -4 -16 -10z"/>
<path d="M14607 8305 c-80 -23 -114 -43 -89 -52 7 -3 19 -18 27 -33 44 -85
-20 -177 -138 -199 -45 -8 -48 -7 -85 28 -22 20 -41 43 -44 51 -5 18 -33 -2
-126 -93 l-64 -61 7 -55 c4 -31 16 -76 27 -101 12 -25 20 -49 19 -53 -1 -5 3
-6 8 -3 5 4 12 -2 15 -12 3 -10 24 -38 46 -62 49 -55 49 -55 -115 -65 -89 -5
-128 -11 -152 -25 -17 -10 -49 -21 -70 -25 -21 -4 -44 -8 -52 -9 -8 -1 -19 -9
-25 -18 -13 -17 -42 -28 -89 -33 -95 -8 -293 -167 -352 -280 -34 -66 -62 -90
-82 -73 -7 6 -13 7 -13 2 0 -5 -7 1 -15 13 -21 30 -11 64 38 138 66 99 191
213 290 265 48 25 83 48 78 53 -5 5 -18 4 -30 -3 -12 -6 -26 -8 -31 -5 -12 7
-138 -43 -175 -70 -16 -12 -35 -24 -41 -26 -18 -6 -94 -70 -138 -114 -52 -54
-136 -185 -169 -265 -14 -36 -36 -112 -48 -169 -26 -124 -23 -249 10 -408 20
-101 25 -135 35 -268 12 -147 36 -222 85 -269 26 -25 31 -27 37 -13 3 9 2 21
-2 28 -4 7 -3 9 3 6 12 -8 65 52 57 65 -3 4 1 8 10 8 8 0 16 4 18 10 2 5 37
-11 78 -35 41 -25 80 -45 87 -45 7 0 13 -4 13 -9 0 -5 18 -11 39 -15 22 -3 42
-12 44 -18 4 -8 6 -9 6 -2 1 14 113 -7 176 -32 22 -9 55 -16 73 -16 18 1 45
-3 60 -9 40 -16 273 -12 349 6 256 60 493 237 600 450 47 93 93 235 87 270
-15 90 -15 128 0 206 15 82 15 88 -5 165 -11 43 -29 99 -40 122 -29 68 -101
171 -168 241 -34 35 -61 65 -61 67 0 2 8 4 18 4 68 0 215 72 245 121 6 10 16
19 21 19 23 0 93 113 116 190 8 25 23 53 34 63 10 9 15 17 10 17 -5 0 -10 17
-10 38 -1 25 -8 46 -21 59 -12 12 -28 51 -37 93 -21 91 -33 114 -97 184 -39
43 -58 56 -80 56 -19 0 -29 5 -29 15 0 22 -79 18 -173 -10z m-667 -847 c8 -3
-7 -5 -34 -5 -31 -1 -44 2 -36 7 8 5 18 6 22 4 4 -3 8 3 8 12 0 16 1 16 13 2
6 -9 19 -18 27 -20z m-156 -20 c-3 -4 -9 -8 -15 -8 -5 0 -9 4 -9 8 0 5 7 9 15
9 8 0 12 -4 9 -9z m40 0 c-3 -4 -9 -8 -15 -8 -5 0 -9 4 -9 8 0 5 7 9 15 9 8 0
12 -4 9 -9z m38 -5 c-10 -4 -9 -10 5 -27 11 -11 32 -41 47 -65 24 -37 25 -43
10 -37 -39 15 -114 27 -146 24 -25 -2 -33 -8 -33 -23 0 -16 14 -24 75 -41 41
-11 82 -23 90 -27 17 -8 70 -15 114 -16 27 -1 28 -2 14 -18 -15 -17 -39 -90
-53 -157 -5 -23 -8 -27 -16 -15 -6 10 -9 11 -9 1 0 -8 -5 -10 -12 -6 -10 5
-10 4 -1 -6 9 -10 8 -16 -3 -28 -8 -8 -18 -12 -21 -8 -7 7 -33 -13 -33 -25 0
-5 7 -9 16 -9 10 0 14 5 10 16 -3 8 -2 12 4 9 20 -12 9 -31 -25 -44 -27 -9
-39 -10 -50 -1 -11 9 -13 6 -11 -14 3 -20 -1 -25 -17 -23 -13 1 -20 -5 -22
-18 -15 -110 -15 -115 4 -134 12 -12 16 -23 10 -32 -7 -12 -9 -11 -9 1 0 9 -3
11 -8 4 -10 -15 -42 -25 -42 -13 0 6 -7 6 -20 -1 -19 -10 -20 -8 -14 27 3 21
8 41 10 45 2 4 -9 3 -25 -2 -33 -9 -40 0 -42 48 0 24 -1 25 -9 7 -8 -18 -9
-18 -10 5 -1 23 -2 23 -10 5 -7 -17 -9 -17 -9 -2 -1 9 -5 17 -10 17 -5 0 -7
-10 -4 -22 3 -13 3 -20 -1 -17 -4 4 -8 17 -10 30 -1 13 -6 24 -12 24 -5 0 -8
-2 -8 -5 9 -32 13 -52 8 -42 -3 6 -9 10 -14 7 -4 -3 -6 5 -2 17 5 20 3 21 -10
10 -13 -10 -18 -10 -24 -1 -4 7 -3 9 4 5 6 -3 16 2 21 13 10 17 7 17 -39 -5
-72 -35 -130 -32 -174 7 -41 35 -52 86 -41 176 6 51 12 61 65 115 32 32 65 58
74 58 9 0 16 5 16 11 0 5 -3 8 -7 6 -5 -3 -9 7 -9 21 -1 15 1 21 3 15 6 -17
24 -16 59 2 20 10 23 15 12 15 -10 0 -18 5 -18 11 0 6 12 8 29 6 24 -4 29 -2
24 11 -4 10 -3 14 2 10 4 -4 14 0 21 10 9 11 13 13 14 4 0 -7 5 -10 11 -6 6 3
15 0 20 -7 6 -10 9 -11 9 -1 0 6 7 12 16 12 8 0 12 5 9 11 -4 6 -14 8 -22 5
-8 -3 -11 -1 -8 5 8 11 46 2 57 -15 6 -8 8 -8 8 1 0 6 12 25 26 43 25 29 27
30 40 13 11 -14 14 -14 12 -3 -2 11 7 16 32 18 19 2 39 8 45 13 5 5 14 9 20 8
5 0 4 -3 -3 -6z m-292 -83 c0 -5 -2 -10 -4 -10 -3 0 -8 5 -11 10 -3 6 -1 10 4
10 6 0 11 -4 11 -10z m-86 -72 c-10 -16 -22 -7 -17 13 4 15 8 17 14 8 4 -7 5
-17 3 -21z m544 -265 c-6 -7 -16 -13 -23 -13 -16 0 -29 -28 -26 -55 2 -11 -1
-17 -5 -12 -9 9 -12 87 -2 81 4 -2 9 0 13 6 3 5 17 9 30 8 18 -2 21 -5 13 -15z
m-72 -55 c0 -13 3 -30 6 -38 2 -8 3 -12 1 -7 -3 4 -9 5 -13 2 -5 -3 -12 0 -16
6 -4 8 -3 9 4 5 8 -5 10 2 6 24 -4 16 -3 30 2 30 5 0 9 -10 10 -22z m-46 -43
c-10 -12 -10 -15 0 -15 22 0 2 -13 -23 -15 -12 -1 -20 -6 -17 -11 3 -5 8 -8
12 -7 10 4 3 -26 -10 -39 -7 -7 -13 -9 -13 -5 -1 4 -2 13 -3 20 -1 6 -7 11
-14 10 -7 -2 -12 2 -12 7 0 6 5 10 11 10 5 0 7 5 4 10 -3 6 0 10 7 11 10 0 10
2 1 6 -7 2 -13 9 -13 15 0 6 12 2 27 -7 22 -15 25 -15 20 -2 -4 10 0 17 11 20
9 3 19 5 21 6 2 0 -2 -6 -9 -14z m-94 -82 c-11 -11 -17 4 -9 23 7 18 8 18 11
1 2 -10 1 -21 -2 -24z m-8 -50 c-1 -10 1 -24 5 -30 5 -7 4 -13 -2 -13 -12 0
-24 37 -16 50 10 16 17 12 13 -7z m96 -11 c3 -5 -1 -9 -9 -9 -8 0 -12 4 -9 9
3 4 7 8 9 8 2 0 6 -4 9 -8z m-194 -22 c0 -5 -2 -10 -4 -10 -3 0 -8 5 -11 10
-3 6 -1 10 4 10 6 0 11 -4 11 -10z"/>
<path d="M13566 7293 c-6 -14 -5 -15 5 -6 7 7 10 15 7 18 -3 3 -9 -2 -12 -12z"/>
<path d="M13470 7240 c0 -5 5 -10 11 -10 5 0 7 5 4 10 -3 6 -8 10 -11 10 -2 0
-4 -4 -4 -10z"/>
<path d="M13772 6825 c0 -16 2 -22 5 -12 2 9 2 23 0 30 -3 6 -5 -1 -5 -18z"/>
<path d="M13694 6826 c4 -12 2 -17 -7 -13 -8 3 -13 -3 -14 -14 -1 -13 5 -19
20 -18 20 0 21 1 3 8 -16 6 -17 8 -4 13 9 4 21 1 27 -5 8 -8 9 -4 6 13 -5 27
-15 39 -15 19 0 -12 -2 -11 -11 1 -9 12 -10 12 -5 -4z"/>
<path d="M13738 6833 c7 -3 16 -2 19 1 4 3 -2 6 -13 5 -11 0 -14 -3 -6 -6z"/>
<path d="M13743 6805 c0 -8 4 -12 9 -9 5 3 6 10 3 15 -9 13 -12 11 -12 -6z"/>
<path d="M13750 6780 c-9 -6 -10 -10 -3 -10 6 0 15 5 18 10 8 12 4 12 -15 0z"/>
<path d="M13750 6749 c0 -5 5 -7 10 -4 6 3 10 8 10 11 0 2 -4 4 -10 4 -5 0
-10 -5 -10 -11z"/>
<path d="M13998 7013 c7 -3 16 -2 19 1 4 3 -2 6 -13 5 -11 0 -14 -3 -6 -6z"/>
<path d="M13863 6845 c0 -8 4 -12 9 -9 5 3 6 10 3 15 -9 13 -12 11 -12 -6z"/>
<path d="M3305 8161 c-19 -9 -18 -10 5 -10 18 -1 21 -4 12 -13 -9 -9 -19 -7
-44 6 -39 21 -81 18 -86 -6 -2 -10 8 -43 22 -73 15 -30 25 -58 24 -62 -3 -12
28 -106 46 -141 20 -38 21 -72 2 -72 -14 0 -30 -65 -27 -105 1 -11 -13 -36
-31 -55 -74 -79 -71 -71 -47 -131 29 -72 49 -147 49 -184 0 -49 15 -56 69 -36
51 20 145 36 120 20 -12 -7 -11 -9 4 -9 9 0 17 4 17 9 0 4 35 16 78 25 82 18
106 20 137 13 11 -3 25 -6 32 -6 6 -1 21 -18 34 -38 12 -21 35 -50 51 -65 17
-16 26 -33 22 -42 -3 -9 -1 -16 4 -16 19 0 -11 -199 -31 -212 -8 -5 -6 -8 6
-8 10 0 15 -4 12 -10 -3 -5 0 -10 7 -10 8 0 6 -5 -4 -11 -10 -5 -18 -17 -18
-25 0 -8 4 -12 10 -9 6 4 7 -1 3 -11 -6 -16 -7 -15 -19 1 -12 16 -13 15 -9
-13 2 -17 7 -37 11 -44 6 -10 4 -11 -7 0 -15 14 -33 16 -24 3 3 -5 1 -12 -5
-16 -6 -4 -8 -10 -5 -15 3 -4 2 -15 -1 -24 -6 -15 -8 -15 -21 1 -13 16 -13 16
-3 -5 6 -12 8 -28 4 -35 -4 -6 5 0 21 16 15 15 31 27 36 27 5 0 5 7 2 17 -4
11 -3 14 5 9 7 -4 15 -1 18 8 3 9 10 16 16 16 5 0 7 -4 4 -8 -3 -5 -7 -21 -10
-37 -15 -81 -111 -207 -209 -273 -51 -35 -126 -70 -158 -74 -13 -2 -30 -7 -37
-12 -8 -5 -18 -4 -25 3 -6 6 -16 11 -22 11 -5 0 -3 -5 5 -10 12 -8 9 -10 -12
-10 -16 0 -28 5 -28 11 0 6 -9 9 -20 6 -38 -10 -190 61 -190 89 0 7 -11 19
-25 28 -26 17 -57 70 -70 121 -7 27 -7 51 -1 145 0 14 6 28 11 32 6 5 5 8 -4
8 -11 0 -11 3 0 17 8 9 9 14 3 10 -7 -4 -10 2 -6 18 2 14 8 28 13 31 5 3 9 11
9 17 0 7 -4 6 -10 -3 -8 -12 -10 -11 -7 5 1 11 6 26 11 34 5 8 4 16 -3 21 -9
5 -8 10 4 20 8 7 15 19 15 27 0 8 11 31 25 51 14 20 25 41 25 46 0 5 -16 31
-36 58 -19 27 -55 90 -79 140 -54 109 -70 124 -123 121 -26 -1 -46 4 -59 16
-10 10 -31 21 -46 25 -15 3 -27 10 -27 15 0 5 -17 20 -37 32 -21 13 -44 30
-52 37 -10 10 -29 13 -58 9 -33 -3 -43 -1 -43 10 0 8 -5 11 -10 8 -6 -4 -20 5
-32 20 -17 22 -27 26 -50 21 l-30 -6 4 48 c3 42 1 47 -19 50 -35 5 -85 -55
-115 -139 -50 -137 -61 -204 -61 -354 -1 -257 48 -410 189 -595 47 -62 128
-141 165 -160 13 -7 53 -32 89 -55 36 -24 79 -49 95 -56 17 -8 32 -16 35 -19
9 -10 102 -47 163 -64 32 -9 98 -20 147 -23 94 -6 260 12 260 29 0 5 5 6 10 3
19 -12 212 91 280 148 60 50 165 178 235 285 15 23 31 42 34 42 3 0 14 -24 24
-52 10 -29 25 -68 33 -85 8 -18 20 -48 28 -65 28 -68 81 -173 89 -179 5 -3 9
-10 9 -15 0 -5 4 -8 8 -7 4 1 10 -10 13 -26 7 -33 62 -95 76 -86 37 22 44 274
12 407 -10 46 -27 121 -36 168 -10 47 -38 150 -63 230 -51 164 -71 242 -102
385 -15 69 -39 135 -77 214 -30 63 -70 147 -90 187 -19 40 -50 87 -69 106 -18
18 -34 38 -34 43 0 16 -99 107 -109 101 -5 -4 -12 -2 -16 3 -3 6 -11 8 -18 5
-7 -2 -39 5 -72 16 -67 24 -189 35 -220 21z"/>
<path d="M15605 7030 c-79 -7 -96 -13 -142 -47 l-32 -23 31 -45 c40 -57 43
-119 9 -188 -51 -105 -188 -141 -270 -71 l-30 25 -44 -33 c-25 -18 -54 -48
-66 -66 -47 -72 -64 -240 -36 -357 19 -80 19 -114 -2 -139 -10 -12 -14 -18 -9
-14 5 4 16 -6 25 -22 17 -31 84 -85 141 -115 96 -50 263 -68 380 -41 110 26
187 71 280 166 117 119 177 263 187 447 5 88 2 128 -12 185 -25 107 -85 223
-147 291 l-54 57 -69 -2 c-39 -1 -101 -4 -140 -8z"/>
<path d="M3681 6748 c-1 -9 -10 -23 -21 -31 -11 -8 -17 -18 -12 -23 4 -5 -4 0
-18 11 -14 11 -22 16 -18 11 4 -5 2 -16 -5 -24 -10 -13 -9 -14 2 -8 9 6 12 5
9 -5 -3 -8 -11 -13 -17 -11 -6 1 -11 -6 -11 -15 0 -14 3 -13 23 5 13 12 29 22
35 22 7 0 12 5 12 11 0 5 4 7 10 4 11 -7 24 38 17 57 -4 9 -6 7 -6 -4z"/>
<path d="M3630 6719 c0 -5 5 -7 10 -4 6 3 10 8 10 11 0 2 -4 4 -10 4 -5 0 -10
-5 -10 -11z"/>
<path d="M4585 6335 c-88 -20 -150 -42 -247 -90 -205 -101 -382 -293 -439
-475 -72 -229 -23 -457 140 -663 95 -119 184 -178 354 -233 149 -48 382 -34
525 32 122 57 354 240 389 308 9 17 12 17 34 4 13 -8 31 -14 40 -14 9 1 46 33
81 71 l64 70 -8 95 c-13 144 -53 316 -103 445 -13 33 -31 82 -40 108 -27 75
-107 187 -169 235 -116 90 -234 123 -434 121 -70 -1 -154 -7 -187 -14z m55
-55 c0 -5 -5 -10 -11 -10 -5 0 -7 5 -4 10 3 6 8 10 11 10 2 0 4 -4 4 -10z
m180 6 c0 -3 -4 -8 -10 -11 -5 -3 -10 -1 -10 4 0 6 5 11 10 11 6 0 10 -2 10
-4z m78 -3 c-30 -8 -20 -21 13 -17 16 2 28 0 24 -5 -3 -5 -2 -11 2 -14 5 -2 1
-2 -7 1 -15 5 -45 10 -67 11 -7 1 -13 5 -13 10 0 10 24 19 50 19 10 0 9 -2 -2
-5z m-332 -28 c1 -9 -3 -13 -9 -9 -7 3 -4 -1 6 -9 16 -14 15 -15 -14 -19 -33
-5 -46 9 -35 38 4 10 13 13 27 9 16 -6 20 -4 14 6 -5 8 -4 10 0 6 5 -4 10 -14
11 -22z m44 5 c0 -13 -6 -20 -17 -19 -11 0 -13 3 -5 6 6 2 12 11 12 19 0 8 2
14 5 14 3 0 5 -9 5 -20z m90 0 c0 -5 -19 -9 -42 -9 -40 1 -41 2 -13 9 44 11
55 11 55 0z m215 -20 c4 -6 -6 -10 -22 -10 -22 0 -25 2 -13 10 19 12 27 12 35
0z m-505 -36 c0 -8 -19 -13 -24 -6 -3 5 1 9 9 9 8 0 15 -2 15 -3z m570 -14 c0
-5 -2 -10 -4 -10 -3 0 -8 5 -11 10 -3 6 -1 10 4 10 6 0 11 -4 11 -10z m-635
-28 c-3 -3 -11 0 -18 7 -9 10 -8 11 6 5 10 -3 15 -9 12 -12z m50 8 c3 -6 -1
-7 -9 -4 -18 7 -21 14 -7 14 6 0 13 -4 16 -10z m205 -24 c0 -3 -4 -8 -10 -11
-5 -3 -10 -1 -10 4 0 6 5 11 10 11 6 0 10 -2 10 -4z m-315 -16 c-3 -5 -11 -10
-16 -10 -6 0 -7 5 -4 10 3 6 11 10 16 10 6 0 7 -4 4 -10z m215 -5 c-7 -9 -15
-13 -19 -10 -3 3 1 10 9 15 21 14 24 12 10 -5z m279 -31 c76 -68 63 -168 -33
-251 -62 -53 -114 -76 -172 -76 -55 0 -90 17 -139 68 -51 53 -38 127 38 207
20 20 38 34 41 31 3 -4 15 2 25 11 11 10 23 16 28 13 4 -3 24 3 43 14 19 10
56 18 82 19 41 0 54 -5 87 -36z m-378 -47 c-10 -9 -11 -8 -5 6 3 10 9 15 12
12 3 -3 0 -11 -7 -18z m56 17 c-3 -3 -12 -4 -19 -1 -8 3 -5 6 6 6 11 1 17 -2
13 -5z m-379 -151 c-13 -16 -15 -16 -21 1 -4 10 0 14 13 13 14 -1 16 -4 8 -14z
m-38 0 c0 -20 -48 -85 -54 -74 -4 6 -2 11 3 11 6 0 11 7 11 15 0 8 5 15 10 15
6 0 10 9 10 20 0 11 5 20 10 20 6 0 10 -3 10 -7z m-52 -139 c-3 -14 -5 -12
-10 9 -3 19 -2 25 4 19 6 -6 8 -18 6 -28z"/>
<path d="M4520 6249 c0 -5 5 -7 10 -4 6 3 10 8 10 11 0 2 -4 4 -10 4 -5 0 -10
-5 -10 -11z"/>
<path d="M12601 6322 c-12 -28 0 -127 17 -144 14 -14 52 4 58 28 13 51 -20
144 -50 144 -7 0 -19 -12 -25 -28z"/>
<path d="M11705 5975 c-38 -37 -35 -95 6 -129 37 -31 76 -33 129 -6 54 28 64
49 40 88 -43 70 -130 93 -175 47z"/>
<path d="M13420 5576 c-5 -14 -14 -56 -21 -93 -6 -38 -15 -88 -20 -112 -6 -24
-6 -47 -2 -52 4 -4 25 7 45 24 l37 32 3 110 c3 97 1 110 -14 113 -12 2 -21 -5
-28 -22z"/>
<path d="M5955 5428 c66 -50 121 -114 135 -158 19 -61 21 -140 3 -140 -7 0
-13 -9 -13 -20 0 -40 -40 -22 -111 49 -89 89 -194 143 -214 111 -4 -6 8 -10
30 -10 26 0 45 -9 71 -33 33 -30 36 -38 36 -84 0 -51 -26 -104 -97 -190 -72
-88 -218 -55 -255 56 l-13 41 -18 -29 c-22 -37 -55 -55 -93 -53 -40 3 -86 32
-87 57 -1 11 -5 -9 -10 -45 -27 -208 74 -381 271 -467 156 -67 309 -55 436 36
81 58 141 141 164 230 l11 43 41 -6 c22 -4 53 -13 68 -21 36 -19 44 -8 35 48
-13 83 -58 200 -103 266 -25 36 -56 90 -69 120 -43 97 -117 170 -208 206 l-40
15 30 -22z"/>
<path d="M13893 5363 c3 -5 -25 -9 -62 -10 -36 -1 -80 -5 -98 -8 l-32 -6 25
-36 c28 -41 30 -60 10 -107 -27 -64 -100 -86 -156 -46 -15 11 -30 17 -33 14
-3 -3 -11 -3 -17 1 -8 5 -7 10 4 18 10 8 12 17 7 25 -6 10 -12 7 -25 -12 -31
-49 -98 -67 -156 -43 -22 9 -101 -163 -100 -221 0 -51 19 -100 49 -126 54 -49
159 -59 238 -25 34 16 79 24 155 29 88 6 116 12 162 35 68 35 119 88 152 160
26 56 25 94 -1 159 -6 14 -5 17 4 12 14 -9 5 42 -11 59 -6 6 -7 3 -3 -10 6
-19 6 -19 -5 -1 -10 15 -9 20 1 27 11 7 10 9 -3 9 -12 0 -18 8 -18 24 0 16
-12 31 -35 47 -19 13 -35 27 -35 32 0 4 -5 7 -11 7 -5 0 -8 -3 -6 -7z"/>
<path d="M9272 5332 c9 -20 84 -111 92 -111 5 -1 17 5 25 13 9 8 34 24 56 36
l40 21 -50 -2 c-73 -2 -80 -1 -111 23 -27 22 -58 33 -52 20z"/>
<path d="M8880 5320 c-25 -8 -25 -8 -2 -9 32 -1 78 -27 86 -48 6 -15 12 -12
41 20 19 21 35 39 35 40 0 6 -139 3 -160 -3z"/>
<path d="M8660 5210 c0 -5 5 -10 10 -10 6 0 10 5 10 10 0 6 -4 10 -10 10 -5 0
-10 -4 -10 -10z"/>
<path d="M8883 5161 c-20 -17 -21 -20 -7 -32 14 -11 19 -10 35 10 34 42 14 57
-28 22z"/>
<path d="M6905 5120 c-138 -29 -259 -94 -355 -189 -87 -86 -138 -169 -182
-299 -36 -104 -45 -229 -16 -224 9 1 20 -3 24 -9 4 -7 3 -9 -4 -6 -20 13 -41
-5 -48 -39 -10 -56 15 -219 51 -326 75 -222 214 -357 444 -431 95 -30 258 -30
360 2 88 27 168 65 237 111 94 63 213 191 258 278 16 31 20 33 55 28 21 -3 42
-6 47 -7 40 -11 196 43 263 90 16 12 36 21 43 21 19 0 41 -72 39 -127 -1 -44
13 -66 23 -35 6 16 102 122 112 122 1 0 24 14 49 31 43 29 51 31 102 25 64 -7
131 13 173 51 49 45 66 16 33 -54 -14 -31 -14 -35 12 -78 14 -26 32 -48 40
-51 17 -7 7 -44 -11 -44 -8 0 -29 -16 -46 -36 -17 -19 -57 -48 -88 -64 -31
-16 -62 -35 -69 -44 -16 -19 -102 -46 -146 -46 -41 0 -47 -7 -30 -34 7 -11 16
-40 20 -64 4 -23 10 -40 15 -37 8 5 25 -24 22 -37 -1 -5 4 -8 12 -8 8 0 17 -8
20 -18 6 -17 68 -51 101 -56 8 -1 27 -14 42 -29 53 -50 204 -103 210 -73 3 20
28 24 46 8 13 -12 41 -17 106 -19 105 -3 153 9 203 48 44 35 55 36 86 7 21
-20 34 -23 110 -23 79 0 92 3 142 32 46 27 62 31 98 26 62 -8 126 14 180 63
37 33 58 43 92 47 54 5 90 16 90 27 0 4 11 11 25 14 14 4 23 11 20 16 -3 5 0
7 8 4 8 -3 18 -1 22 5 3 6 16 11 28 11 18 0 19 2 7 10 -13 8 -13 10 1 10 9 0
26 9 39 20 13 11 27 20 33 20 5 0 6 7 3 16 -5 12 -1 14 15 9 19 -6 20 -5 9 14
-6 12 -7 20 -3 19 17 -5 54 24 49 38 -3 9 -1 12 4 9 6 -3 13 1 16 9 3 9 11 13
17 9 6 -4 8 0 4 10 -3 9 -1 17 6 20 6 2 12 23 13 48 0 24 4 60 8 79 6 28 5 32
-4 20 -10 -12 -10 -10 -5 10 4 14 8 37 8 53 0 28 12 37 20 15 8 -23 19 61 14
104 -3 24 -8 72 -10 109 -2 36 -9 74 -15 85 -6 10 -18 35 -27 54 l-16 35 4
-36 c4 -25 -1 -47 -17 -75 -19 -34 -26 -39 -51 -36 -31 4 -61 19 -89 47 -18
18 -36 12 -36 -12 0 -47 -53 -87 -133 -100 -52 -8 -128 45 -147 102 -14 42
-33 49 -72 29 -33 -17 -107 -21 -176 -9 -34 5 -42 11 -42 28 0 37 -39 172 -50
175 -16 6 -12 59 5 66 17 6 21 36 5 36 -5 0 -10 -4 -10 -9 0 -19 -43 -19 -76
1 -24 14 -51 20 -85 19 -35 0 -51 4 -55 14 -4 8 -9 13 -13 10 -4 -2 -18 24
-31 59 -21 54 -28 64 -59 73 -25 8 -39 8 -52 0 -31 -19 -30 -34 5 -76 19 -23
36 -56 40 -79 5 -34 10 -40 38 -47 18 -5 59 -9 91 -10 77 -3 106 -30 141 -133
30 -88 34 -150 11 -158 -8 -4 -15 -11 -15 -17 0 -6 -21 -30 -47 -54 -47 -43
-49 -43 -103 -37 -88 9 -123 22 -158 55 -41 38 -47 55 -57 143 -8 84 -14 99
-31 92 -7 -3 -15 0 -18 7 -2 7 -5 -5 -5 -26 -1 -21 -6 -48 -12 -59 -6 -12 -13
-41 -15 -66 -4 -60 -22 -77 -102 -92 -60 -11 -72 -10 -99 4 -133 68 -133 328
0 360 29 7 38 26 12 26 -22 0 -107 -45 -127 -67 -88 -97 -71 -282 35 -375 40
-35 27 -51 -54 -67 -77 -16 -141 -2 -190 39 -34 30 -34 30 -34 114 0 64 4 88
17 102 9 11 19 31 23 45 6 24 5 25 -30 21 -69 -8 -98 53 -69 142 27 83 98 139
138 107 6 -4 24 -11 40 -13 24 -5 31 -1 48 28 11 19 24 34 29 34 5 0 9 7 9 15
0 20 69 65 102 65 34 0 41 12 23 36 -12 17 -16 18 -47 5 -89 -36 -131 -18
-127 54 2 22 10 45 19 52 8 6 11 15 7 19 -10 11 -144 -123 -166 -166 -10 -19
-21 -57 -24 -83 -5 -37 -14 -55 -41 -81 -23 -21 -40 -50 -48 -79 -7 -26 -16
-47 -20 -47 -5 0 -32 13 -61 29 -73 41 -160 64 -220 58 l-50 -4 -156 157
c-141 141 -165 161 -241 199 -157 77 -351 99 -535 61z m235 -86 c0 -17 -12
-18 -29 -1 -11 10 -13 9 -8 -4 4 -12 0 -15 -19 -11 -13 2 -24 0 -24 -5 0 -6
-11 -8 -25 -5 -31 6 -33 32 -2 31 21 0 21 -1 2 -9 -19 -8 -19 -9 3 -9 13 -1
22 5 22 13 0 18 15 23 52 18 15 -2 28 -11 28 -18z m-143 -16 c-3 -8 -6 -5 -6
6 -1 11 2 17 5 13 3 -3 4 -12 1 -19z m-37 -7 c0 -5 3 -17 7 -27 4 -12 3 -15
-5 -10 -7 4 -17 4 -24 0 -7 -4 -21 -8 -32 -9 -12 -1 -30 -6 -40 -10 -14 -6
-17 -5 -12 3 4 7 1 12 -6 12 -8 0 -15 -12 -16 -26 -2 -23 0 -25 13 -14 9 7 18
10 22 7 3 -4 11 1 18 10 13 18 51 11 40 -7 -5 -8 -11 -7 -21 1 -17 14 -19 3
-2 -15 10 -10 21 -7 60 17 40 25 58 30 108 29 53 0 63 -3 81 -26 11 -14 26
-26 32 -26 7 1 2 9 -10 19 -19 16 -20 20 -7 25 8 3 13 2 10 -3 -3 -4 8 -8 25
-9 17 0 34 -4 38 -8 3 -4 -6 -4 -21 -2 -34 6 -37 -9 -5 -22 20 -9 20 -10 2 -9
-38 2 -42 -1 -43 -36 -4 -117 -114 -202 -243 -190 -55 6 -116 38 -123 65 -16
57 -16 71 -4 64 7 -4 10 -4 6 1 -4 4 -3 14 3 22 6 7 8 13 4 13 -4 0 -14 -8
-21 -17 -8 -11 -13 -13 -14 -5 0 6 -9 12 -20 12 -11 0 -20 6 -20 13 0 8 -4 7
-10 -3 -13 -20 -13 -90 0 -90 5 0 7 7 4 15 -4 10 0 15 15 15 14 0 19 5 15 15
-4 8 -1 15 5 15 6 0 11 -2 11 -4 0 -2 3 -11 6 -20 4 -12 0 -16 -16 -16 -11 0
-19 -4 -16 -9 7 -10 -22 -26 -54 -30 -5 0 -10 -6 -10 -12 0 -15 -39 -49 -56
-49 -7 0 -16 -9 -19 -20 -7 -22 -41 -45 -48 -32 -2 4 -2 1 0 -7 2 -8 -5 -22
-16 -33 -24 -22 -32 -23 -25 -3 4 9 0 15 -10 15 -9 0 -16 -5 -16 -12 0 -6 -3
-8 -6 -5 -4 4 -1 13 6 22 10 12 16 13 26 4 11 -9 16 -5 25 20 7 19 17 30 24
27 12 -4 25 33 25 70 0 19 -26 18 -34 -2 -4 -9 -13 -14 -22 -10 -8 3 -12 2 -9
-4 3 -5 -3 -14 -13 -19 -11 -6 -23 -25 -27 -43 -7 -29 -9 -30 -12 -10 -3 12
-8 20 -13 17 -5 -3 -4 -20 1 -38 15 -52 11 -62 -14 -33 -18 20 -25 24 -35 14
-14 -14 -16 0 -3 21 5 8 14 10 22 6 9 -6 11 -3 6 8 -3 10 -3 17 1 17 5 0 14
16 21 35 7 19 17 35 22 35 6 0 8 4 4 9 -8 14 45 63 61 57 8 -3 14 1 14 10 0
11 6 15 20 11 11 -3 20 -1 20 4 0 5 5 9 11 9 6 0 9 -9 6 -20 -6 -22 -5 -23 17
-14 9 3 16 13 16 21 0 8 5 11 10 8 6 -3 13 1 16 9 3 9 12 16 20 16 8 0 14 7
14 15 0 8 -4 15 -10 15 -5 0 -10 -4 -10 -10 0 -5 -6 -10 -13 -10 -7 0 -18 -10
-25 -21 -10 -15 -17 -18 -24 -11 -17 17 31 67 64 67 15 -1 24 3 21 9 -4 6 1 6
13 2 40 -17 57 -19 50 -8 -4 7 -14 12 -22 12 -8 0 -14 5 -14 11 0 21 35 3 48
-24 12 -24 15 -26 34 -15 11 7 29 18 40 24 29 17 6 25 -29 12 -26 -10 -34 -9
-48 5 -19 20 -36 22 -52 6 -6 -6 -13 -7 -16 -2 -5 8 73 49 173 91 32 13 60 15
60 3z m-240 -105 c0 -2 -7 -6 -15 -10 -8 -3 -15 -1 -15 4 0 6 7 10 15 10 8 0
15 -2 15 -4z m1326 -243 c52 -33 58 -82 16 -121 -16 -15 -37 -44 -46 -64 -31
-64 -100 -70 -154 -12 -19 20 -26 22 -44 13 -11 -6 -23 -20 -25 -30 -7 -26
-18 -24 -42 7 -37 47 -23 122 31 170 74 68 192 84 264 37z m-1601 -93 c3 -5
-1 -10 -9 -10 -9 0 -16 5 -16 10 0 6 4 10 9 10 6 0 13 -4 16 -10z m-48 -32
c-3 -8 -6 -5 -6 6 -1 11 2 17 5 13 3 -3 4 -12 1 -19z m510 -30 c-3 -8 -6 -5
-6 6 -1 11 2 17 5 13 3 -3 4 -12 1 -19z m130 -26 c-10 -10 -14 -22 -10 -27 5
-4 2 -5 -5 -1 -11 6 -10 12 4 27 9 10 19 19 22 19 3 0 -2 -8 -11 -18z m54 -9
c-12 -20 -14 -14 -5 12 4 9 9 14 11 11 3 -2 0 -13 -6 -23z m-146 -3 c-3 -6 4
-10 17 -11 22 0 22 -1 3 -9 -28 -12 -37 -12 -30 0 3 6 0 10 -7 10 -9 0 -9 3 2
10 19 12 23 12 15 0z m122 -52 c-3 -8 -6 -5 -6 6 -1 11 2 17 5 13 3 -3 4 -12
1 -19z m-205 -12 c3 3 9 1 12 -4 5 -8 -22 -9 -31 -2 -3 2 -12 5 -29 9 -3 0 -2
6 1 12 5 7 13 5 24 -5 10 -9 20 -13 23 -10z m115 -31 c0 -8 -4 -12 -9 -9 -5 3
-6 10 -3 15 9 13 12 11 12 -6z m2482 -11 c54 -21 70 -24 107 -16 29 6 46 6 53
-1 16 -16 13 -40 -3 -34 -20 8 -24 -8 -22 -93 1 -62 -3 -83 -23 -118 -17 -32
-26 -40 -32 -30 -7 10 -9 9 -9 -5 0 -10 -4 -15 -10 -12 -5 3 -10 1 -10 -4 0
-6 -15 -11 -34 -11 -19 0 -36 -4 -38 -8 -1 -5 -24 -6 -49 -3 -59 8 -103 45
-123 106 -24 68 -14 103 46 161 27 27 54 59 59 72 11 28 12 28 88 -4z m-3099
6 c0 -5 -5 -10 -11 -10 -5 0 -7 5 -4 10 3 6 8 10 11 10 2 0 4 -4 4 -10z m2576
-87 c38 -37 64 -52 110 -65 l61 -17 2 -67 c2 -83 -30 -148 -80 -159 -17 -4
-35 -16 -40 -29 -10 -21 -14 -22 -72 -15 -112 14 -206 43 -225 70 -25 36 -20
113 12 184 39 84 67 112 146 138 29 10 37 7 86 -40z m1177 -428 c-3 -9 -8 -14
-10 -11 -3 3 -2 9 2 15 9 16 15 13 8 -4z"/>
<path d="M6921 5001 c-9 -6 -10 -11 -2 -15 13 -8 31 1 31 15 0 11 -11 11 -29
0z"/>
<path d="M6790 4950 c-12 -8 -11 -10 8 -10 12 0 22 5 22 10 0 13 -11 13 -30 0z"/>
<path d="M6526 4761 c-20 -22 -20 -31 -1 -31 9 0 12 6 9 15 -4 8 -1 15 4 15 6
0 13 -8 15 -17 4 -14 5 -13 6 4 1 30 -13 36 -33 14z"/>
<path d="M6660 4759 l-25 -20 25 7 c31 8 33 10 29 23 -2 5 -15 1 -29 -10z"/>
<path d="M6640 4705 c0 -8 2 -15 4 -15 2 0 6 7 10 15 3 8 1 15 -4 15 -6 0 -10
-7 -10 -15z"/>
<path d="M9735 5101 c4 -23 2 -48 -4 -60 -10 -18 -7 -23 31 -41 79 -38 84 -22
25 77 -40 68 -61 78 -52 24z"/>
<path d="M9890 4940 c0 -5 5 -10 11 -10 5 0 7 5 4 10 -3 6 -8 10 -11 10 -2 0
-4 -4 -4 -10z"/>
<path d="M12406 4931 c-6 -9 -14 -60 -33 -214 -10 -82 -21 -62 -28 53 -8 115
-20 148 -50 137 -15 -6 -16 -19 -11 -125 12 -216 14 -230 47 -253 16 -11 36
-18 44 -15 28 10 53 81 65 186 15 138 11 234 -12 238 -9 2 -19 -1 -22 -7z"/>
<path d="M9923 4908 c1 -16 7 -24 15 -21 9 4 12 -11 11 -60 -1 -53 3 -70 21
-95 38 -51 47 -47 39 17 -6 56 -31 114 -68 161 l-19 24 1 -26z"/>
<path d="M9538 4835 c-21 -28 -22 -35 -6 -35 6 0 20 -8 30 -17 28 -26 43 -4
28 41 -13 42 -28 45 -52 11z"/>
<path d="M10939 4808 c-24 -24 -31 -26 -60 -18 -51 15 -56 13 -64 -27 -18 -98
-87 -165 -178 -171 -57 -4 -58 -4 -98 38 -39 40 -41 41 -64 26 -13 -9 -31 -16
-40 -16 -12 0 -15 -12 -15 -55 0 -57 23 -119 54 -144 9 -7 13 -17 10 -22 -3
-5 0 -9 7 -9 7 0 9 -3 6 -6 -3 -4 15 -26 40 -50 45 -43 72 -57 57 -31 -4 6 3
2 15 -10 12 -13 31 -23 42 -23 11 0 29 -5 40 -10 13 -8 19 -7 19 0 0 7 6 8 18
2 24 -12 58 -8 124 16 59 21 69 27 121 77 37 35 52 56 74 108 9 20 20 37 25
37 30 0 51 145 26 172 -7 7 -20 26 -28 41 -8 16 -32 43 -55 60 -22 17 -42 34
-45 37 -3 3 -17 -7 -31 -22z"/>
<path d="M10040 4673 c0 -6 11 -15 25 -21 21 -10 25 -9 25 3 0 8 -4 15 -9 15
-5 0 -16 3 -25 6 -9 3 -16 2 -16 -3z"/>
</g>
</svg>
